<svg xmlns="http://www.w3.org/2000/svg">
<symbol id="like" width="1em" height="1em" viewBox="0 0 24 24" fill="none">
<path d="M20 8H14.388L15.511 4.633C15.713 4.025 15.611 3.351 15.236 2.831C14.861 2.311 14.253 2 13.612 2H12C11.703 2 11.422 2.132 11.231 2.36L6.531 8H4C2.897 8 2 8.897 2 10V19C2 20.103 2.897 21 4 21H17.307C17.7139 20.9986 18.1108 20.8738 18.4452 20.6421C18.7797 20.4103 19.0359 20.0825 19.18 19.702L21.937 12.351C21.9789 12.2387 22.0002 12.1198 22 12V10C22 8.897 21.103 8 20 8ZM4 10H6V19H4V10ZM20 11.819L17.307 19H8V9.362L12.468 4H13.614L12.052 8.683C12.0013 8.83332 11.9871 8.99355 12.0107 9.15043C12.0343 9.3073 12.095 9.45629 12.1877 9.58504C12.2803 9.71379 12.4024 9.8186 12.5436 9.89076C12.6849 9.96293 12.8414 10.0004 13 10H20V11.819Z" fill="currentColor"/>
</symbol>
<symbol id="user" width="1em" height="1em" viewBox="0 0 32 32" fill="none">
<path d="M16 8C15.0111 8 14.0444 8.29325 13.2222 8.84265C12.3999 9.39206 11.759 10.173 11.3806 11.0866C11.0022 12.0002 10.9031 13.0055 11.0961 13.9755C11.289 14.9454 11.7652 15.8363 12.4645 16.5355C13.1637 17.2348 14.0546 17.711 15.0246 17.9039C15.9945 18.0969 16.9998 17.9978 17.9134 17.6194C18.8271 17.241 19.6079 16.6001 20.1574 15.7779C20.7068 14.9556 21 13.9889 21 13C21 11.6739 20.4732 10.4021 19.5355 9.46447C18.5979 8.52678 17.3261 8 16 8ZM16 16C15.4067 16 14.8266 15.8241 14.3333 15.4944C13.8399 15.1648 13.4554 14.6962 13.2284 14.1481C13.0013 13.5999 12.9419 12.9967 13.0576 12.4147C13.1734 11.8328 13.4591 11.2982 13.8787 10.8787C14.2982 10.4591 14.8328 10.1734 15.4147 10.0576C15.9967 9.94189 16.5999 10.0013 17.1481 10.2284C17.6962 10.4554 18.1648 10.8399 18.4944 11.3333C18.8241 11.8266 19 12.4067 19 13C18.9992 13.7954 18.6829 14.558 18.1204 15.1204C17.558 15.6829 16.7954 15.9992 16 16Z" fill="currentColor"/>
<path d="M16 2C13.2311 2 10.5243 2.82109 8.22202 4.35943C5.91973 5.89777 4.12532 8.08427 3.06569 10.6424C2.00607 13.2006 1.72882 16.0155 2.26901 18.7313C2.80921 21.447 4.14258 23.9416 6.10051 25.8995C8.05845 27.8574 10.553 29.1908 13.2687 29.731C15.9845 30.2712 18.7994 29.9939 21.3576 28.9343C23.9157 27.8747 26.1022 26.0803 27.6406 23.778C29.1789 21.4757 30 18.7689 30 16C29.9958 12.2883 28.5194 8.72977 25.8948 6.10518C23.2702 3.48059 19.7117 2.00423 16 2V2ZM10 26.377V25C10.0008 24.2046 10.3171 23.442 10.8796 22.8796C11.442 22.3171 12.2046 22.0008 13 22H19C19.7954 22.0008 20.558 22.3171 21.1204 22.8796C21.6829 23.442 21.9992 24.2046 22 25V26.377C20.1792 27.4402 18.1085 28.0005 16 28.0005C13.8915 28.0005 11.8208 27.4402 10 26.377V26.377ZM23.992 24.926C23.9721 23.6143 23.4377 22.363 22.5039 21.4416C21.5702 20.5202 20.3118 20.0025 19 20H13C11.6882 20.0025 10.4298 20.5202 9.4961 21.4416C8.56235 22.363 8.02794 23.6143 8.00801 24.926C6.19457 23.3067 4.91574 21.1749 4.34084 18.8127C3.76594 16.4505 3.92211 13.9693 4.78864 11.6979C5.65518 9.42637 7.19123 7.47167 9.19338 6.09257C11.1955 4.71347 13.5693 3.97503 16.0005 3.97503C18.4317 3.97503 20.8055 4.71347 22.8076 6.09257C24.8098 7.47167 26.3458 9.42637 27.2124 11.6979C28.0789 13.9693 28.2351 16.4505 27.6602 18.8127C27.0853 21.1749 25.8064 23.3067 23.993 24.926H23.992Z" fill="currentColor"/>
</symbol>
<symbol id="book" width="1em" height="1em" viewBox="0 0 24 24" fill="none">
<path d="M6 22H21V20H6.012C5.55 19.988 5 19.805 5 19C5 18.195 5.55 18.012 6.012 18H21V4C21 2.897 20.103 2 19 2H6C4.794 2 3 2.799 3 5V19C3 21.201 4.794 22 6 22ZM5 8V5C5 4.195 5.55 4.012 6 4H19V16H5V8Z" fill="currentColor"/>
<path d="M8 6H17V8H8V6Z" fill="currentColor"/>
</symbol>
<symbol id="delete" width="1em" height="1em" viewBox="0 0 24 24" fill="none">
<path d="M6 19C6 20.1 6.9 21 8 21H16C17.1 21 18 20.1 18 19V7H6V19ZM19 4H15.5L14.5 3H9.5L8.5 4H5V6H19V4Z" fill="currentColor"/>
</symbol>
<symbol id="edit" width="1em" height="1em" viewBox="0 0 24 24" fill="none">
<path d="M7 17.013L11.413 16.998L21.045 7.45802C21.423 7.08002 21.631 6.57802 21.631 6.04402C21.631 5.51002 21.423 5.00802 21.045 4.63002L19.459 3.04402C18.703 2.28802 17.384 2.29202 16.634 3.04102L7 12.583V17.013V17.013ZM18.045 4.45802L19.634 6.04102L18.037 7.62302L16.451 6.03802L18.045 4.45802ZM9 13.417L15.03 7.44402L16.616 9.03002L10.587 15.001L9 15.006V13.417Z" fill="currentColor"/>
<path d="M5 21H19C20.103 21 21 20.103 21 19V10.332L19 12.332V19H8.158C8.132 19 8.105 19.01 8.079 19.01C8.046 19.01 8.013 19.001 7.979 19H5V5H11.847L13.847 3H5C3.897 3 3 3.897 3 5V19C3 20.103 3.897 21 5 21Z" fill="currentColor"/>
</symbol>
<symbol id="search" width="1em" height="1em" viewBox="0 0 24 24" fill="none">
<path d="M21 21L15 15L21 21ZM17 10C17 10.9193 16.8189 11.8295 16.4672 12.6788C16.1154 13.5281 15.5998 14.2997 14.9497 14.9497C14.2997 15.5998 13.5281 16.1154 12.6788 16.4672C11.8295 16.8189 10.9193 17 10 17C9.08075 17 8.1705 16.8189 7.32122 16.4672C6.47194 16.1154 5.70026 15.5998 5.05025 14.9497C4.40024 14.2997 3.88463 13.5281 3.53284 12.6788C3.18106 11.8295 3 10.9193 3 10C3 8.14348 3.7375 6.36301 5.05025 5.05025C6.36301 3.7375 8.14348 3 10 3C11.8565 3 13.637 3.7375 14.9497 5.05025C16.2625 6.36301 17 8.14348 17 10Z" stroke="currentColor" stroke-width="2" stroke-linecap="round" stroke-linejoin="round"/>
</symbol>
</svg>
